Coordinates
version=1
nRows=13
nColumns=22
inDegrees=yes

Units are S.I. units (second, meters, Newtons, ...)
If the header above contains a line with 'inDegrees', this indicates whether rotational values are in degrees (yes) or radians (no).

endheader
time	pelvis_tilt	pelvis_list	pelvis_rotation	pelvis_tx	pelvis_ty	pelvis_tz	hip_flexion_r	hip_adduction_r	hip_rotation_r	knee_angle_r	ankle_angle_r	subtalar_angle_r	hip_flexion_l	hip_adduction_l	hip_rotation_l	knee_angle_l	ankle_angle_l	subtalar_angle_l	lumbar_extension	lumbar_bending	lumbar_rotation
      2.09000000	      6.14192001	     -2.62552917	     54.98643843	      0.62696978	      0.99841283	      0.45703927	     -9.37105627	      8.67464330	    -13.12385643	    -10.35809882	     15.44812448	      1.70319701	     23.75047681	     -6.67591186	    -20.55200538	    -19.95160206	     10.82313451	      0.46841646	    -18.15091548	      6.18412508	     10.21431732
      2.10000000	      6.31686950	     -2.50486978	     55.13508662	      0.63044685	      0.99735329	      0.45069739	     -9.95970017	      8.71060139	    -13.18741206	    -10.51786030	     15.64893673	      2.00773530	     23.56823706	     -6.81729595	    -21.26790087	    -19.73459181	     10.67595469	      0.12099088	    -18.20838782	      6.17545781	     10.29568163
      2.11000000	      6.47244409	     -2.38725544	     55.26719083	      0.63394043	      0.99625828	      0.44422366	    -10.51049492	      8.71771940	    -13.23510585	    -10.73692877	     15.86103445	      2.32305298	     23.40013086	     -6.95845319	    -21.89802814	    -19.72871101	     10.44773510	     -0.30871837	    -18.23720100	      6.14674789	     10.39464087
      2.12000000	      6.61109318	     -2.25605036	     55.39930330	      0.63741983	      0.99518080	      0.43761462	    -11.03387252	      8.68948602	    -13.27053983	    -11.02374370	     16.06149544	      2.67862542	     23.23197856	     -7.08158533	    -22.40767939	    -19.93081072	     10.10181961	     -0.86943129	    -18.25769560	      6.09636711	     10.46582065
      2.13000000	      6.72429164	     -2.11079086	     55.54856104	      0.64086295	      0.99413430	      0.43087881	    -11.52277462	      8.62302685	    -13.30606070	    -11.37806340	     16.24205438	      3.06735772	     23.08032280	     -7.16993365	    -22.74807180	    -20.34583829	      9.62583515	     -1.56328509	    -18.26509730	      6.01798848	     10.50995245
      2.14000000	      6.80979821	     -1.94881831	     55.73212468	      0.64426566	      0.99314369	      0.42399129	    -11.98637712	      8.52142342	    -13.35664820	    -11.78279683	     16.38840382	      3.50205329	     22.94730251	     -7.20944609	    -22.89203159	    -20.95531627	      9.05715098	     -2.39708407	    -18.25651884	      5.91155232	     10.50890375
      2.15000000	      6.85873762	     -1.76377180	     55.95133817	      0.64759807	      0.99224370	      0.41695684	    -12.41419243	      8.37227980	    -13.41104594	    -12.25778117	     16.49627235	      3.96149380	     22.83012865	     -7.17771857	    -22.81919839	    -21.71756649	      8.43050486	     -3.27469781	    -18.23564843	      5.77050619	     10.45563426
      2.16000000	      6.88857535	     -1.55386265	     56.20722026	      0.65088008	      0.99145826	      0.40975895	    -12.82602497	      8.19164886	    -13.48426669	    -12.79011609	     16.55822112	      4.50426198	     22.72503546	     -7.09556371	    -22.57808801	    -22.61515770	      7.87410639	     -4.24796434	    -18.21286197	      5.60724010	     10.37607334
      2.17000000	      6.87730927	     -1.30972068	     56.50792303	      0.65403323	      0.99083217	      0.40240956	    -13.19118617	      7.95154730	    -13.56133436	    -13.42459420	     16.56273116	      5.10641214	     22.61007540	     -6.90565642	    -22.11797646	    -23.53909406	      7.36158454	     -5.18206763	    -18.19176996	      5.40421149	     10.23517808
      2.18000000	      6.82683411	     -1.03795735	     56.85077392	      0.65706343	      0.99037329	      0.39488589	    -13.51136066	      7.65925477	    -13.62343057	    -14.15056696	     16.49381587	      5.80823682	     22.48031581	     -6.61594339	    -21.50323037	    -24.44785189	      6.94413425	     -6.10071531	    -18.16308020	      5.16813382	     10.03903772
      2.19000000	      6.74612314	     -0.74073530	     57.23953513	      0.65992477	      0.99007306	      0.38717219	    -13.76597599	      7.31264586	    -13.72662445	    -15.01464112	     16.35686353	      6.58979506	     22.31713616	     -6.22950238	    -20.76922093	    -25.29575147	      6.67675181	     -6.94252668	    -18.13275674	      4.91402897	      9.81557566
      2.20000000	      6.63939910	     -0.43526416	     57.64002748	      0.66264927	      0.98994003	      0.37930784	    -13.93908454	      6.92030924	    -13.78394052	    -16.02042223	     16.13498491	      7.49031404	     22.10892271	     -5.77975780	    -20.01548802	    -26.04729029	      6.47495470	     -7.76346373	    -18.09075914	      4.64989545	      9.57979239
      2.21000000	      6.50406931	     -0.12969475	     58.05079767	      0.66522604	      0.98994764	      0.37131130	    -13.99934943	      6.47760737	    -13.81364391	    -17.20974209	     15.82175079	      8.45853937	     21.84441665	     -5.27157225	    -19.28214338	    -26.66811007	      6.36102224	     -8.51440841	    -18.02806475	      4.37565982	      9.36172628
